<svg width="427" height="429" xmlns="http://www.w3.org/2000/svg" xmlns:xlink="http://www.w3.org/1999/xlink" xml:space="preserve" overflow="hidden"><g transform="translate(-1142 -61)"><path d="M210.478 401.148 210.478 391.194 209.741 390.993C209.305 390.893 207.964 390.792 206.758 390.792 203.741 390.792 194.458 389.887 189.028 389.083 169.824 386.201 150.251 379.699 132.688 370.314 86.5709 345.714 53.2563 301.071 43.0676 250.194 41.8275 243.893 40.755 236.989 40.9561 236.185 41.0231 235.816 41.727 236.185 43.5368 237.659 44.8774 238.732 46.1175 239.57 46.2516 239.469 46.3856 239.402 46.8548 239.737 47.2905 240.24L48.0949 241.145 47.0895 240.307 46.084 239.469 47.0895 240.575C47.6257 241.178 48.2625 241.581 48.4636 241.514 48.6982 241.413 49.2009 241.748 49.6366 242.251L50.441 243.156 49.5696 242.486C49.1004 242.117 49.2345 242.318 49.8377 242.921 50.4745 243.525 51.0778 243.927 51.2454 243.86 51.413 243.759 51.8152 243.994 52.1503 244.429L52.7871 245.167 51.9492 244.53C51.48 244.161 51.6811 244.463 52.3849 245.133 53.0887 245.804 53.7591 246.273 53.9266 246.206 54.0942 246.105 54.4964 246.34 54.8316 246.776 55.4684 247.513 55.4684 247.513 54.7645 247.01 54.3959 246.742 54.5299 246.943 55.0327 247.446 55.5689 247.949 56.1387 248.284 56.2727 248.217 56.4403 248.116 56.8425 248.351 57.1777 248.786L57.8145 249.524 56.9766 248.854C56.2727 248.317 56.3062 248.384 57.1441 249.289 57.6804 249.893 58.3172 250.295 58.5183 250.228 58.7529 250.127 59.2556 250.462 59.6913 250.965L60.4957 251.87 59.6243 251.2C59.1551 250.831 59.2891 251.032 59.8924 251.635 60.5292 252.239 61.1325 252.674 61.3001 252.574 61.4341 252.473 61.9369 252.808 62.3726 253.311L63.177 254.216 62.3055 253.546C61.8363 253.177 61.9704 253.378 62.5737 253.981 63.2105 254.585 63.8138 255.02 63.9813 254.92 64.1154 254.819 64.6181 255.154 65.0538 255.657L65.8582 256.562 65.0203 255.892C64.3165 255.356 64.3165 255.389 65.1209 256.16 65.6236 256.663 66.1934 256.998 66.3274 256.931 66.495 256.83 66.8972 257.065 67.2323 257.501L67.8691 258.238 67.0312 257.568C66.3274 257.031 66.3609 257.098 67.1988 258.003 67.7351 258.607 68.3719 259.009 68.64 258.908 68.8746 258.841 69.0087 258.875 68.9081 259.042 68.8076 259.176 69.0422 259.612 69.4779 259.947 70.1817 260.584 70.1817 260.584 69.7125 259.914 69.2433 259.31 69.2433 259.277 69.7795 259.713 70.1147 259.947 70.3158 260.282 70.2152 260.416 69.9806 260.785 70.9526 261.522 71.3213 261.288 71.4888 261.187 71.9916 261.522 72.4273 262.025L73.2316 262.93 72.3602 262.26C71.891 261.891 72.0251 262.092 72.6284 262.695 73.2652 263.299 73.8684 263.734 74.036 263.634 74.1701 263.533 74.6728 263.868 75.1085 264.371L75.9129 265.276 74.9074 264.438 73.902 263.6 74.9074 264.706C75.4437 265.31 76.0805 265.712 76.2816 265.645 76.5162 265.544 77.0189 265.879 77.4546 266.382L78.259 267.287 77.2535 266.449 76.248 265.611 77.2535 266.717C77.7898 267.321 78.4266 267.723 78.6947 267.622 78.9293 267.555 79.0634 267.589 78.9628 267.756 78.7282 268.125 81.3759 270.572 81.7446 270.337 81.8787 270.236 82.3814 270.572 82.8171 271.074L83.6215 271.979 82.616 271.141 81.6105 270.304 82.616 271.41C83.1523 272.013 83.7891 272.415 83.9902 272.348 84.2248 272.247 84.6605 272.516 85.0291 272.918 85.6324 273.655 85.6324 273.655 84.9286 273.152 84.5599 272.884 84.828 273.219 85.5654 273.89 86.5373 274.828 87.0066 275.063 87.4423 274.862 87.9115 274.594 102.424 260.383 123.539 239.536 128.432 234.71 129.672 233.637 129.806 234.14 129.907 234.509 130.543 236.654 131.18 238.966 133.225 246.206 137.984 257.366 138.788 256.864 139.023 256.73 139.09 256.763 138.989 256.998 138.654 257.501 139.09 258.439 139.526 258.171 139.727 258.07 139.76 258.137 139.626 258.338 139.324 258.841 140.229 260.182 140.598 259.813 140.766 259.679 140.766 259.746 140.632 259.981 140.397 260.45 141.704 262.83 142.106 262.595 142.24 262.494 142.341 262.695 142.307 263.031 142.307 263.332 142.441 263.567 142.643 263.533 142.877 263.5 143.011 263.701 142.978 264.036 142.978 264.338 143.112 264.572 143.313 264.539 143.547 264.505 143.681 264.706 143.648 265.042 143.648 265.343 143.849 265.611 144.117 265.611 144.385 265.611 144.62 265.913 144.62 266.282 144.62 266.65 144.821 266.918 145.056 266.851 145.324 266.818 145.424 266.918 145.324 267.086 145.223 267.254 145.391 267.656 145.726 268.024 146.028 268.36 146.162 268.427 145.961 268.125 145.659 267.689 145.692 267.689 146.195 268.058 146.497 268.326 146.698 268.695 146.597 268.929 146.497 269.164 146.798 269.633 147.201 270.002 147.971 270.639 147.971 270.639 147.469 269.968 147 269.365 147 269.332 147.536 269.734 147.837 270.002 148.039 270.371 147.938 270.605 147.871 270.806 148.273 271.443 148.876 271.979L149.982 272.985 149.145 271.979 148.307 270.974 149.212 271.778C149.714 272.214 150.049 272.717 149.949 272.951 149.748 273.42 157.356 280.995 157.758 280.76 157.959 280.626 158.462 280.961 158.898 281.464L159.702 282.369 158.696 281.531 157.691 280.727 158.73 281.799C159.3 282.436 160.037 282.972 160.406 283.006 160.741 283.073 161.043 283.308 161.043 283.576 161.043 283.844 161.344 284.045 161.713 284.045 162.082 284.045 162.383 284.28 162.383 284.548 162.383 284.816 162.685 285.05 163.054 285.05 163.422 285.05 163.724 285.285 163.724 285.553 163.724 285.821 163.992 286.056 164.294 286.056 164.595 286.056 164.964 286.19 165.131 286.357 165.299 286.525 165.199 286.559 164.897 286.425 164.629 286.29 164.696 286.391 165.031 286.693 165.366 286.961 165.802 287.128 165.969 287.028 166.137 286.927 166.204 287.028 166.17 287.296 166.103 287.531 166.338 287.698 166.64 287.698 166.975 287.665 167.142 287.765 167.042 287.933 166.874 288.201 167.344 288.368 167.98 288.268 168.148 288.268 168.215 288.435 168.148 288.67 168.114 288.871 168.349 289.039 168.651 289.039 168.986 289.005 169.153 289.139 169.019 289.34 168.885 289.541 169.019 289.609 169.354 289.474 169.69 289.34 169.891 289.407 169.824 289.676 169.79 289.91 170.025 290.044 170.326 290.044 170.662 290.011 170.863 290.078 170.762 290.212 170.561 290.58 172.572 291.653 173.008 291.385 173.242 291.217 173.276 291.284 173.108 291.586 172.907 291.921 172.974 291.988 173.41 291.821 173.711 291.686 173.913 291.72 173.812 291.888 173.544 292.323 179.175 295.038 179.677 294.736 179.912 294.602 179.979 294.636 179.845 294.87 179.476 295.44 188.09 298.591 194.625 300.266 197.608 301.037 204.378 302.143 208.065 302.479L210.478 302.713 210.478 292.39 210.478 282.034 213.93 285.486C215.841 287.363 217.449 288.838 217.55 288.771 217.65 288.67 220.734 291.653 224.387 295.373L231.09 302.143 224.22 295.44 217.349 288.737 224.186 295.675C227.973 299.496 231.157 302.546 231.325 302.445 231.492 302.344 231.559 302.445 231.526 302.713 231.459 302.948 231.626 303.115 231.861 303.048 232.062 303.015 232.23 303.182 232.196 303.383 232.129 303.618 232.297 303.786 232.531 303.719 232.8 303.685 232.9 303.752 232.8 303.92 232.565 304.322 237.257 309.416 237.659 309.148 237.827 309.048 237.927 309.148 237.894 309.416 237.827 309.651 237.994 309.818 238.229 309.751 238.497 309.718 238.598 309.785 238.497 309.952 238.397 310.087 242.284 314.142 247.111 318.935L255.892 327.615 247.345 318.901 238.799 310.187 247.412 318.7C252.138 323.392 255.925 327.381 255.858 327.515 255.624 327.85 261.757 334.184 262.092 333.983 262.193 333.916 263.801 335.357 265.645 337.201 267.455 339.011 268.829 340.519 268.661 340.519 268.527 340.519 268.795 340.988 269.298 341.558 270.169 342.597 270.169 342.63 269.533 343.334 269.198 343.703 256.495 358.349 241.312 375.844 226.13 393.306 212.992 408.388 212.12 409.36L210.512 411.069 210.478 401.148ZM268.46 340.418C268.46 340.385 266.985 338.91 265.209 337.167L261.925 333.983 265.109 337.268C268.058 340.284 268.46 340.686 268.46 340.418Z" transform="matrix(1.00002 0 0 -1 1142 490)"/><path d="M233.336 389.82C233.403 389.653 242.217 379.464 252.909 367.13 263.634 354.796 272.817 344.205 273.32 343.602L274.258 342.496 269.063 337.234C242.486 310.221 233.939 301.473 233.939 301.238 233.939 301.104 234.207 300.97 234.542 300.97 235.481 300.97 244.731 298.054 248.451 296.58 272.516 287.028 291.418 266.818 299.462 241.949 300.702 238.095 302.411 230.923 302.814 227.672L303.048 225.895 291.787 225.895C285.587 225.895 280.526 225.795 280.526 225.627 280.526 225.393 331.503 175.019 337.737 169.12L340.887 166.17 342.798 167.813C353.959 177.432 404.031 220.935 406.142 222.845 407.651 224.22 408.891 225.493 408.891 225.627 408.891 225.761 404.969 225.895 400.177 225.895L391.462 225.895 391.462 227.672C391.429 231.325 389.988 242.251 388.58 249.356 385.329 265.511 380 280.693 372.359 295.541 355.333 328.621 327.984 355.668 294.703 372.325 277.375 381.006 259.981 386.469 240.542 389.284 234.274 390.189 233.168 390.289 233.336 389.82Z" transform="matrix(1.00002 0 0 -1 1142 490)"/><path d="M153.502 276.604 150.318 273.32 153.602 276.504C156.619 279.453 157.021 279.855 156.753 279.855 156.719 279.855 155.244 278.381 153.502 276.604Z" transform="matrix(1.00002 0 0 -1 1142 490)"/><path d="M65.322 252.607C53.625 242.452 38.2748 229.113 31.2701 223.013L18.5006 211.919 21.5505 211.685C23.1928 211.584 27.9185 211.484 32.0074 211.484L39.4814 211.484 39.6825 207.227C39.8166 204.848 40.1517 200.591 40.4198 197.742 45.4472 145.156 74.3377 97.2623 118.813 67.8691 141.771 52.6866 167.88 43.1681 195.564 39.8836 201.898 39.1127 203.272 36.9007 182.459 60.8309 172.371 72.4608 163.054 83.1858 161.78 84.7275L159.434 87.5093 166.07 94.1789C169.723 97.8321 172.84 100.781 173.008 100.681 173.175 100.58 173.242 100.681 173.209 100.949 173.142 101.184 173.309 101.351 173.51 101.318 173.745 101.251 173.913 101.418 173.846 101.653 173.812 101.854 173.98 102.022 174.214 101.955 174.482 101.921 174.583 101.988 174.482 102.156 174.248 102.558 179.61 108.323 180.012 108.054 180.18 107.954 180.281 108.054 180.247 108.323 180.18 108.557 180.348 108.725 180.582 108.658 180.85 108.624 180.951 108.691 180.85 108.859 180.75 109.026 184.168 112.579 188.458 116.835L196.234 124.511 188.693 116.802 181.152 109.093 188.76 116.601C192.949 120.757 196.301 124.242 196.2 124.41 196.1 124.544 196.804 125.516 197.776 126.521 198.915 127.728 199.351 128.398 199.049 128.499 198.781 128.566 196.871 129.035 194.759 129.538 179.409 133.158 164.964 141.302 153.502 152.798 139.66 166.707 131.348 183.666 128.532 203.607 128.264 205.618 128.03 208.199 128.03 209.372L128.03 211.484 137.582 211.484C142.844 211.484 147.134 211.618 147.134 211.752 147.134 212.087 87.1741 271.141 86.8725 271.141 86.7384 271.141 77.0524 262.796 65.322 252.607Z" transform="matrix(1.00002 0 0 -1 1142 490)"/><path d="M79.9013 268.728 79.2645 267.957 80.0353 268.594C80.4375 268.963 80.7727 269.298 80.7727 269.365 80.7727 269.633 80.5045 269.432 79.9013 268.728Z" transform="matrix(1.00002 0 0 -1 1142 490)"/><path d="M372.023 189.296C361.432 180.079 350.071 170.226 346.82 167.377 343.569 164.528 340.753 162.216 340.619 162.216 340.485 162.216 331.838 170.595 321.415 180.817 311.025 191.006 302.479 199.351 302.445 199.317 302.411 199.284 301.976 197.474 301.473 195.296 299.06 184.436 293.798 172.874 287.095 163.556 272.616 143.413 249.792 130.108 225.326 127.527L223.214 127.292 223.214 137.381C223.214 142.944 223.114 147.469 222.979 147.469 222.812 147.469 214.567 139.224 204.613 129.136 194.659 119.048 181.32 105.541 174.985 99.1392L163.489 87.5093 164.227 86.5709C164.629 86.0681 178.035 70.5839 193.988 52.1838L223.046 18.7352 223.147 28.7564 223.214 38.7776 226.666 39.0122C249.055 40.5204 270.304 45.9499 290.715 55.4348 292.524 56.2727 294.167 56.876 294.368 56.742 294.535 56.6414 294.602 56.7084 294.502 56.876 294.234 57.3117 295.172 57.7474 295.708 57.4123 295.943 57.3117 296.01 57.3452 295.842 57.4793 295.507 57.848 303.249 62.0709 303.752 61.8028 303.987 61.6688 304.054 61.7023 303.886 61.8363 303.551 62.2385 306.601 64.0819 307.104 63.8138 307.338 63.6797 307.405 63.6797 307.271 63.8473 306.903 64.2159 309.282 65.7912 309.751 65.4895 309.986 65.322 310.02 65.389 309.852 65.6906 309.651 66.0258 309.718 66.0928 310.12 65.9252 310.422 65.8247 310.757 65.8917 310.891 66.0928 311.059 66.3274 310.958 66.3609 310.656 66.2269 310.388 66.0928 310.556 66.2939 311.025 66.6626 311.494 67.0312 312.03 67.2994 312.265 67.1988 312.5 67.1318 312.768 67.2323 312.902 67.4334 313.069 67.668 312.969 67.7016 312.701 67.534 312.399 67.3329 312.332 67.3999 312.5 67.668 312.667 67.9027 312.969 68.0032 313.237 67.9027 313.505 67.8021 313.673 67.9027 313.606 68.1373 313.572 68.3719 313.807 68.5395 314.108 68.5395 314.41 68.5395 314.779 68.6735 314.946 68.8411 315.114 69.0087 315.013 69.0422 314.712 68.9081 314.444 68.7741 314.578 68.9752 315.047 69.3438 315.516 69.7125 316.119 69.9806 316.388 69.9471 316.656 69.9136 316.89 70.1147 316.89 70.3828 316.89 70.6509 317.158 70.8855 317.46 70.8855 317.762 70.8855 318.13 71.0196 318.298 71.1872 318.465 71.3548 318.365 71.3883 318.097 71.2207 317.762 71.0196 317.695 71.0866 317.862 71.3548 318.03 71.5894 318.331 71.6899 318.6 71.5894 318.834 71.4888 319.136 71.5894 319.27 71.7905 319.437 72.0251 319.337 72.0586 319.035 71.891 318.633 71.6229 318.633 71.6899 319.035 72.1591 319.27 72.4943 319.739 72.6954 320.041 72.6619 320.309 72.5948 320.577 72.7959 320.577 73.0641 320.577 73.3322 320.879 73.5668 321.247 73.5668 321.616 73.5668 321.918 73.8014 321.918 74.0695 321.918 74.3377 322.186 74.5723 322.487 74.5723 322.823 74.5723 323.258 74.8069 323.493 75.075 323.861 75.4772 323.828 75.4772 323.258 75.075 322.621 74.6058 322.621 74.6058 323.057 75.1755 323.325 75.5107 323.727 75.7118 323.962 75.6113 324.197 75.5107 324.565 75.7118 324.833 76.0134 325.236 76.5497 325.202 76.5497 324.599 76.0805 323.929 75.5777 323.929 75.5777 324.565 76.3486 324.934 76.7508 325.403 77.0524 325.638 76.9519 325.872 76.8513 326.241 77.0524 326.509 77.3541 326.911 77.8903 326.878 77.8903 326.275 77.4211 325.604 76.9184 325.604 76.9184 326.241 77.6892 326.61 78.0914 327.079 78.393 327.314 78.2925 327.548 78.192 327.917 78.393 328.185 78.6947 328.587 79.1974 328.554 79.2309 327.95 78.7952 327.582 78.5606 327.716 78.7282 328.219 79.2309 328.755 79.7002 329.291 80.0353 329.425 79.9348 329.593 79.8677 329.995 80.1023 330.33 80.538 330.967 81.2754 330.967 81.2754 330.263 80.7727 329.894 80.5045 330.028 80.7056 330.531 81.2084 331.067 81.7111 331.637 82.0462 331.771 81.9792 331.905 81.8787 332.408 82.2138 332.844 82.7166L333.648 83.6215 332.777 82.9512C332.307 82.5825 332.509 82.8506 333.212 83.5545 333.916 84.2583 334.62 84.761 334.754 84.6605 334.922 84.5599 336.162 85.6324 337.502 86.973 338.876 88.3472 339.848 89.4867 339.681 89.4867 339.513 89.4867 339.815 89.9224 340.351 90.4922 340.854 91.0284 341.424 91.3971 341.591 91.2966 341.759 91.196 341.826 91.2966 341.792 91.5647 341.725 91.7993 341.893 91.9669 342.128 91.8998 342.396 91.8663 342.496 91.9334 342.396 92.1009 342.295 92.2685 343.099 93.207 344.138 94.2124L346.049 96.0223 344.373 94.1789 342.697 92.3355 344.44 93.9778C345.412 94.8827 346.116 95.7541 346.015 95.9217 345.915 96.0558 346.485 96.8266 347.289 97.631 348.093 98.4354 348.361 98.603 347.892 98.0332L347.054 97.0277 348.127 97.9997C348.697 98.5024 349.099 99.1392 349.032 99.3403 348.931 99.5749 349.3 100.111 349.803 100.547L350.741 101.385 350.071 100.547 349.4 99.709 350.138 100.346C350.573 100.681 350.808 101.083 350.741 101.251 350.64 101.385 350.976 101.921 351.445 102.457 351.948 102.96 352.115 103.094 351.881 102.725 351.445 102.122 351.478 102.089 351.981 102.491 352.283 102.759 352.484 103.128 352.383 103.362 352.283 103.597 352.584 104.066 352.987 104.435 353.757 105.071 353.757 105.071 353.255 104.401 352.785 103.798 352.785 103.764 353.322 104.2 353.657 104.435 353.858 104.77 353.757 104.904 353.657 105.038 353.858 105.44 354.193 105.809 354.495 106.144 354.629 106.211 354.428 105.909 354.126 105.474 354.16 105.474 354.662 105.842 354.964 106.11 355.165 106.479 355.065 106.714 354.964 106.948 355.165 107.351 355.467 107.619 355.969 108.021 356.036 108.021 355.768 107.619 355.601 107.284 355.634 107.216 355.902 107.384 356.104 107.518 356.204 107.753 356.104 107.887 356.036 108.054 356.204 108.457 356.472 108.792 356.774 109.127 356.874 109.227 356.74 108.959 356.573 108.658 356.64 108.557 356.908 108.725 357.109 108.859 357.21 109.093 357.109 109.227 357.042 109.395 357.21 109.797 357.478 110.132 357.779 110.467 357.88 110.568 357.746 110.3 357.578 109.965 357.645 109.898 357.913 110.065 358.148 110.233 358.249 110.4 358.148 110.501 357.88 110.769 358.617 111.976 358.919 111.775 359.086 111.708 359.187 111.875 359.153 112.21 359.153 112.512 359.321 112.747 359.556 112.68 359.757 112.646 359.924 112.713 359.924 112.847 359.824 113.484 359.991 113.987 360.226 113.819 360.394 113.719 360.528 113.819 360.528 114.054 360.528 114.69 361.667 116.333 361.969 116.132 362.103 116.031 362.203 116.232 362.17 116.567 362.17 116.869 362.304 117.104 362.505 117.07 362.74 117.037 362.874 117.238 362.84 117.573 362.84 117.874 363.008 118.109 363.242 118.042 363.51 118.009 363.611 118.109 363.477 118.277 363.209 118.746 364.315 120.355 364.751 120.086 364.952 119.986 364.985 120.053 364.851 120.254 364.549 120.757 365.454 122.097 365.823 121.729 365.991 121.595 365.991 121.662 365.857 121.896 365.588 122.366 366.963 124.745 367.365 124.477 367.532 124.376 367.566 124.578 367.432 124.879 367.264 125.315 367.331 125.382 367.666 125.181 367.935 125.013 368.035 125.047 367.901 125.281 367.633 125.684 369.677 129.404 370.046 129.203 370.18 129.102 370.247 129.236 370.214 129.471 370.214 129.672 371.789 133.124 373.766 137.079 380.704 151.122 385.396 164.696 388.413 179.677 390.289 188.794 391.63 199.686 391.395 203.809L391.295 206.021 372.023 189.296ZM339.513 89.3862C339.513 89.3527 338.407 88.2466 337.1 86.973L334.654 84.627 337 87.0736C339.145 89.3191 339.513 89.6543 339.513 89.3862Z" transform="matrix(1.00002 0 0 -1 1142 490)"/><path d="M166.07 93.7767 159.702 87.3082 166.17 93.6762C169.69 97.1618 172.605 100.078 172.605 100.111 172.605 100.379 171.969 99.7425 166.07 93.7767Z" transform="matrix(1.00002 0 0 -1 1142 490)"/></g></svg>